<?xml version="1.0" encoding="UTF-8"?>
<svg width="15px" height="14px" viewBox="0 0 15 14" version="1.1" xmlns="http://www.w3.org/2000/svg" xmlns:xlink="http://www.w3.org/1999/xlink">
    <title>退出登录</title>
    <g id="v1.5.0" stroke="none" stroke-width="1" fill="none" fill-rule="evenodd">
        <g id="修改密码" transform="translate(-1093.000000, -130.000000)" fill="#CCCCCC">
            <g id="top">
                <g id="编组-4" transform="translate(75.000000, 42.000000)">
                    <g id="退出登录" transform="translate(1018.000000, 88.000000)">
                        <path d="M7.5,0 C7.77614237,-5.07265313e-17 8,0.223857625 8,0.5 C8,0.776142375 7.77614237,1 7.5,1 L1,1 L1,13 L7.5,13 C7.77614237,13 8,13.2238576 8,13.5 C8,13.7761424 7.77614237,14 7.5,14 L0.5,14 C0.223857625,14 3.38176876e-17,13.7761424 0,13.5 L0,0.5 C-3.38176876e-17,0.223857625 0.223857625,5.07265313e-17 0.5,0 L7.5,0 Z" id="形状结合"></path>
                        <path d="M10.5003825,3.14644661 L14.0359164,6.68198052 C14.2311786,6.87724266 14.2311786,7.19382515 14.0359164,7.3890873 L10.5003825,10.9246212 C10.3051204,11.1198833 9.98853789,11.1198833 9.79327575,10.9246212 C9.5980136,10.7293591 9.5980136,10.4127766 9.79327575,10.2175144 L12.438,7.572 L3.5,7.57219925 C3.22385763,7.57219925 3,7.34834163 3,7.07219925 C3,6.79605688 3.22385763,6.57219925 3.5,6.57219925 L12.5,6.57219925 L12.513,6.573 L9.79327575,3.85355339 C9.5980136,3.65829124 9.5980136,3.34170876 9.79327575,3.14644661 C9.98853789,2.95118446 10.3051204,2.95118446 10.5003825,3.14644661 Z" id="形状结合"></path>
                    </g>
                </g>
            </g>
        </g>
    </g>
</svg>