<?xml version="1.0" encoding="UTF-8"?>
<svg width="18px" height="18px" viewBox="0 0 18 18" version="1.1" xmlns="http://www.w3.org/2000/svg" xmlns:xlink="http://www.w3.org/1999/xlink">
    <title>icon_work_checked</title>
    <g id="v1.5.0" stroke="none" stroke-width="1" fill="none" fill-rule="evenodd">
        <g id="icon_work_checked" fill-rule="nonzero">
            <g transform="translate(1.000000, 2.000000)">
                <path d="M14.7760585,11.3333333 L0.557274799,11.3333333 C0.248290752,11.3333333 0,11.0916009 0,10.7907784 L0,1.20922164 C0,0.908399082 0.248290752,0.666666667 0.557274799,0.666666667 L14.7760585,0.666666667 C15.0850426,0.666666667 15.3333333,0.908399082 15.3333333,1.20922164 L15.3333333,10.7907784 C15.3333333,11.0898103 15.0850426,11.3333333 14.7760585,11.3333333 Z" id="路径" fill="#FFFFFF"></path>
                <path d="M15.1841097,11.3333333 L0.815890347,11.3333333 C0.36612847,11.3333333 0,10.973025 0,10.534468 L0,0.798865339 C0,0.358488546 0.36798699,0 0.815890347,0 L15.1841097,0 C15.6338715,0 16,0.360308285 16,0.798865339 L16,10.5362877 C16,10.9766645 15.6338715,11.3333333 15.1841097,11.3333333 Z M0.815890347,0.493149219 C0.643047973,0.493149219 0.503658962,0.631449368 0.503658962,0.798865339 L0.503658962,10.5362877 C0.503658962,10.7055234 0.644906493,10.8420039 0.815890347,10.8420039 L15.1841097,10.8420039 C15.356952,10.8420039 15.496341,10.7037037 15.496341,10.5362877 L15.496341,0.798865339 C15.496341,0.62962963 15.3550935,0.493149219 15.1841097,0.493149219 L0.815890347,0.493149219 Z" id="形状" fill="#009B88"></path>
                <path d="M15.3333333,9.33333333 L0.666666667,9.33333333 L0.666666667,1.02588714 C0.666666667,0.829261198 0.820348455,0.666666667 1.01019066,0.666666667 L14.9970414,0.666666667 C15.1832676,0.666666667 15.3333333,0.823589296 15.3333333,1.01832461 L15.3333333,9.33333333 Z" id="路径" fill-opacity="0.4" fill="#00C6AE"></path>
                <path d="M13.2395626,14.6666667 L3.42710404,14.6666667 C3.00651646,14.6666667 2.66666667,14.3670782 2.66666667,14 C2.66666667,13.6312757 3.00839408,13.3333333 3.42710404,13.3333333 L13.2395626,13.3333333 C13.6601502,13.3333333 14,13.6329218 14,14 C14,14.3687243 13.6582726,14.6666667 13.2395626,14.6666667 Z" id="路径" fill="#00C6AE"></path>
                <path d="M10.2632135,14 L6.40827985,14 C6.14831666,14 5.95423456,13.7171205 6.00943222,13.4173528 L6.46525809,10.9242136 C6.49196663,10.7764408 6.6059231,10.6666667 6.73234355,10.6666667 L9.95695545,10.6666667 C10.0851565,10.6666667 10.1973324,10.7722187 10.2240409,10.9221026 L10.6549388,13.4152417 C10.7172587,13.7128985 10.5231766,14 10.2632135,14 L10.2632135,14 Z" id="路径" fill="#FFFFFF"></path>
                <path d="M10.3369849,14 L6.34075679,14 C6.13586935,14 5.94574857,13.9016393 5.8183861,13.7290064 C5.69102363,13.554366 5.64118615,13.331549 5.68548614,13.1147541 L6.15801934,10.7440616 C6.20970266,10.4770826 6.4312026,10.284376 6.68039003,10.284376 L10.0213475,10.284376 C10.2705349,10.284376 10.4883432,10.4770826 10.5437181,10.7420542 L10.5437181,10.7440616 L10.9904097,13.1127467 C11.0328638,13.3295417 10.9848722,13.5523586 10.8575097,13.7249916 C10.7319931,13.899632 10.5418723,14 10.3369849,14 L10.3369849,14 Z M6.6785442,10.8263633 C6.66377754,10.8263633 6.64901087,10.8404149 6.64347338,10.8564737 L6.17094017,13.2291736 C6.15617351,13.3054533 6.18570683,13.3596521 6.20601099,13.3877551 C6.22631516,13.4158581 6.26876931,13.4580127 6.33891096,13.4580127 L10.335139,13.4580127 C10.4071265,13.4580127 10.4495807,13.4138508 10.4698848,13.3877551 C10.490189,13.3596521 10.5197223,13.3054533 10.5049557,13.2291736 L10.5049557,13.2271663 L10.0582641,10.8584811 C10.0527266,10.8424222 10.0416516,10.8303781 10.0250391,10.8303781 L6.6785442,10.8303781 L6.6785442,10.8263633 Z M0.666666667,8 L16,8 L16,8.54399465 L0.666666667,8.54399465 L0.666666667,8 Z" id="形状" fill="#009B88"></path>
                <path d="M8.01353686,10 C7.85171839,10 7.65832559,9.95538226 7.43993644,9.81595182 C7.34916022,9.76017965 7.3083767,9.61145385 7.34916022,9.48317785 C7.38862814,9.35490184 7.49387593,9.29912967 7.58465214,9.35490184 C8.00169649,9.61517199 8.26481595,9.44971454 8.40558486,9.36233813 L8.41610964,9.35490184 C8.50688585,9.29912967 8.61213364,9.35676092 8.65160156,9.48317785 C8.69106948,9.61145385 8.65028596,9.76017965 8.56082534,9.81595182 L8.55030057,9.82338811 C8.45031517,9.88659658 8.26876274,10 8.01353686,10 Z" id="路径" fill="#009B88"></path>
            </g>
        </g>
    </g>
</svg>