<?xml version="1.0" encoding="UTF-8"?>
<svg width="18px" height="18px" viewBox="0 0 18 18" version="1.1" xmlns="http://www.w3.org/2000/svg" xmlns:xlink="http://www.w3.org/1999/xlink">
    <title>icon _work_unchecked</title>
    <g id="v1.5.0" stroke="none" stroke-width="1" fill="none" fill-rule="evenodd">
        <g id="icon-_work_unchecked" fill-rule="nonzero">
            <g transform="translate(1.000000, 2.000000)">
                <path d="M15.1033345,11.3333333 L0.729998801,11.3333333 C0.417656231,11.3333333 0.166666667,11.0840468 0.166666667,10.7738235 L0.166666667,0.892843154 C0.166666667,0.582619887 0.417656231,0.333333333 0.729998801,0.333333333 L15.1033345,0.333333333 C15.4156771,0.333333333 15.6666667,0.582619887 15.6666667,0.892843154 L15.6666667,10.7738235 C15.6666667,11.0822002 15.4156771,11.3333333 15.1033345,11.3333333 Z" id="路径" fill="#FFFFFF"></path>
                <path d="M15.1841097,11.5 L0.815890347,11.5 C0.36612847,11.5 0,11.1343931 0,10.6893866 L0,0.810613359 C0,0.363760437 0.36798699,0 0.815890347,0 L15.1841097,0 C15.6338715,0 16,0.365606936 16,0.810613359 L16,10.6912331 C16,11.1380861 15.6338715,11.5 15.1841097,11.5 Z M0.815890347,0.500401413 C0.643047973,0.500401413 0.503658962,0.640735389 0.503658962,0.810613359 L0.503658962,10.6912331 C0.503658962,10.8629576 0.644906493,11.0014451 0.815890347,11.0014451 L15.1841097,11.0014451 C15.356952,11.0014451 15.496341,10.8611111 15.496341,10.6912331 L15.496341,0.810613359 C15.496341,0.638888889 15.3550935,0.500401413 15.1841097,0.500401413 L0.815890347,0.500401413 Z" id="形状" fill="#B9B9B9"></path>
                <path d="M15.5,8.99767201 L0.5,8.99767201 L0.5,0.852215899 C0.5,0.659424039 0.657174556,0.5 0.851331361,0.5 L15.1560651,0.5 C15.3465237,0.5 15.5,0.653862735 15.5,0.844800828 L15.5,8.99767201 Z" id="路径" fill="#F5F5F5"></path>
                <path d="M12.8465237,14.8333333 L3.18306213,14.8333333 C2.76886095,14.8333333 2.4341716,14.4959476 2.4341716,14.0825573 C2.4341716,13.6673133 2.77071006,13.3317813 3.18306213,13.3317813 L12.8465237,13.3317813 C13.2607249,13.3317813 13.5954142,13.6691671 13.5954142,14.0825573 C13.5954142,14.4978013 13.2588757,14.8333333 12.8465237,14.8333333 Z" id="路径" fill-opacity="0.1" fill="#000000"></path>
                <path d="M10.0821377,14.3333333 L6.08952794,14.3333333 C5.82028035,14.3333333 5.61926674,14.0787418 5.67643575,13.8089508 L6.14854111,11.5651256 C6.17620354,11.43213 6.29422988,11.3333333 6.42516535,11.3333333 L9.76494195,11.3333333 C9.89772158,11.3333333 10.0139038,11.4283302 10.0415662,11.5632257 L10.4878533,13.8070509 C10.5523989,14.0749419 10.3513853,14.3333333 10.0821377,14.3333333 L10.0821377,14.3333333 Z" id="路径" fill="#FFFFFF"></path>
                <path d="M10.0036515,14.5 L6.00742346,14.5 C5.80253601,14.5 5.61241523,14.4098361 5.48505277,14.2515892 C5.3576903,14.0915022 5.30785281,13.8872533 5.3521528,13.6885246 L5.82468601,11.5153898 C5.87636933,11.2706591 6.09786927,11.0940114 6.3470567,11.0940114 L9.68801412,11.0940114 C9.93720156,11.0940114 10.1550098,11.2706591 10.2103848,11.5135497 L10.2103848,11.5153898 L10.6570764,13.6866845 C10.6995305,13.8854132 10.6515389,14.0896621 10.5241764,14.247909 C10.3986598,14.407996 10.208539,14.5 10.0036515,14.5 L10.0036515,14.5 Z M6.34521087,11.5908331 C6.3304442,11.5908331 6.31567754,11.6037136 6.31014004,11.6184343 L5.83760684,13.7934092 C5.82284017,13.8633322 5.8523735,13.9130144 5.87267766,13.9387755 C5.89298182,13.9645366 5.93543598,14.0031783 6.00557763,14.0031783 L10.0018057,14.0031783 C10.0737932,14.0031783 10.1162473,13.9626966 10.1365515,13.9387755 C10.1568557,13.9130144 10.186389,13.8633322 10.1716223,13.7934092 L10.1716223,13.7915691 L9.72493078,11.6202743 C9.71939328,11.6055537 9.70831829,11.5945132 9.69170579,11.5945132 L6.34521087,11.5945132 L6.34521087,11.5908331 Z M0.333333333,9 L15.6666667,9 L15.6666667,9.49866176 L0.333333333,9.49866176 L0.333333333,9 Z" id="形状" fill="#B9B9B9"></path>
                <path d="M7.93527985,10.6666667 C7.71277946,10.6666667 7.44686435,10.6220489 7.14657927,10.4826185 C7.02176197,10.4268463 6.96568464,10.2781205 7.02176197,10.1498445 C7.07603036,10.0215685 7.22074606,9.96579634 7.34556336,10.0215685 C7.91899934,10.2818387 8.2807886,10.1163812 8.47434585,10.0290048 L8.48881742,10.0215685 C8.61363472,9.96579634 8.75835042,10.0234276 8.81261881,10.1498445 C8.8668872,10.2781205 8.81080986,10.4268463 8.68780152,10.4826185 L8.67332994,10.4900548 C8.53585003,10.5532632 8.28621544,10.6666667 7.93527985,10.6666667 Z" id="路径" fill="#B9B9B9"></path>
            </g>
        </g>
    </g>
</svg>