<?xml version="1.0" encoding="UTF-8"?>
<svg width="18px" height="18px" viewBox="0 0 18 18" version="1.1" xmlns="http://www.w3.org/2000/svg" xmlns:xlink="http://www.w3.org/1999/xlink">
    <title>icon_rest_checked</title>
    <g id="v1.5.0" stroke="none" stroke-width="1" fill="none" fill-rule="evenodd">
        <g id="icon_rest_checked">
            <g transform="translate(1.000000, 0.000000)">
                <polygon id="路径-3" fill="#FFFFFF" points="1.82305327 6.24939313 15.6161567 6.24939313 15.6161567 10.6006772 13.3761325 10.6631862 1.82305327 9.54961466"></polygon>
                <path d="M1.85065637,9.62669048 C1.6536452,9.26030442 2.5112278,8.9314735 4.42340417,8.64019773 L6.54065101,9.79701201 L8.80054428,10.5357101 C10.3355517,10.0297416 11.3465474,9.72673505 11.8335313,9.62669048 C12.3205153,9.52664592 12.7844556,9.52664592 13.2253521,9.62669048 C12.7010885,13.2602164 10.7950082,15.0769793 7.50711126,15.0769793 C2.57526588,15.0769793 2.14617313,10.1762696 1.85065637,9.62669048 Z" id="路径-2" fill="#99E8DF" fill-rule="nonzero"></path>
                <path d="M14.0649125,17.4677839 L1.16740098,17.4677839 C0.614579977,17.4677839 0.167880861,17.1372035 0.167880861,16.7321518 C0.167880861,16.3252836 0.617047928,15.9965196 1.16740098,15.9965196 L14.0649125,15.9965196 C14.6177335,15.9965196 15.0644326,16.3271 15.0644326,16.7321518 C15.0644326,17.1390199 14.6152655,17.4677839 14.0649125,17.4677839 Z" id="路径" fill="#00C6AE" fill-rule="nonzero"></path>
                <path d="M10.3376177,14.8155895 C10.9124636,14.5216555 11.4439989,14.1359824 11.9135806,13.6656793 C12.610406,12.9677727 13.1216552,12.1335629 13.4226388,11.223083 L15.2517891,11.223083 C15.6555176,11.223083 15.9839728,10.8940859 15.9839728,10.4896963 L15.9839728,6.43101181 C15.9839728,6.02664418 15.6555395,5.69766899 15.251811,5.69766899 L13.7245205,5.69766899 C13.6472756,5.69766899 13.3762611,5.69766899 13.2990162,5.69766899 L1.7094739,5.69766899 C1.46748655,5.69766899 1.27132914,5.89413694 1.27132914,6.13650737 L1.27132914,9.35791019 C1.27132914,9.40223287 1.27803276,9.44495379 1.29021318,9.48528302 C1.34677767,11.0650353 1.98727959,12.5420556 3.10912734,13.6656574 C3.5787309,14.1360044 4.11026621,14.5216555 4.68511214,14.8155895 C5.28811498,15.1836899 6.22589413,15.3677401 7.49844959,15.3677401 C8.77100505,15.3677401 9.71739442,15.1836899 10.3376177,14.8155895 Z M1.5072638,15.9852379 C1.35379775,15.8157588 1.51223435,15.6781858 1.84588321,15.6781858 L13.0395849,15.6781858 C13.3800683,15.6781858 13.5298064,15.8171311 13.377583,15.9852379 L13.3123444,16.0576267 C13.1588783,16.2267626 12.7581269,16.3643357 12.4176435,16.3643357 L2.46782456,16.3643357 C2.12671986,16.3643357 1.7247258,16.2253903 1.5725024,16.0572836 L1.5072638,15.9852379 Z M7.46560662,14.7294882 C4.66042466,14.7294882 2.17443608,12.5023253 1.89200678,9.63542373 C3.0201303,8.61688798 4.76473004,8.65181 5.85028455,9.7402354 C5.86697067,9.756966 5.88488606,9.77161956 5.90334781,9.78520033 C6.61982699,10.4282218 7.52342759,10.7497781 8.42743792,10.7497781 C9.39721391,10.7497781 10.3672859,10.379582 11.1056186,9.6394409 C11.2834523,9.4611789 11.3513577,9.46085283 11.1735924,9.28256798 C10.9958271,9.10428314 10.7075645,9.1042375 10.5297309,9.28249951 C9.40791307,10.4070566 7.58275095,10.4071023 6.46120631,9.28252232 C6.44447465,9.26574607 6.42646821,9.25104687 6.40796094,9.23742044 C5.14302483,8.10231822 3.29400591,7.96931788 1.89200678,8.83848785 L1.89200678,6.36703685 L13.0243187,6.36703685 L13.0243187,9.15595862 C13.0243187,12.2292094 10.530687,14.7294882 7.46560662,14.7294882 Z M15.325534,10.5188146 L13.6128706,10.5188146 C13.6695666,10.1770875 13.7018086,9.82860341 13.7088019,9.47568664 C13.7095966,9.46404174 13.7104822,9.4523729 13.7104822,9.4404884 L13.7104821,6.40191545 L15.325534,6.40191545 L15.325534,10.5188146 Z" id="形状备份" fill="#009B88" fill-rule="nonzero"></path>
                <path d="M3.51221153,4.96173849 C3.53191936,4.96133924 3.5515903,4.95982192 3.57113353,4.95719355 C3.64006113,4.94583118 5.26653019,4.67767916 5.355469,3.27101735 C5.38215065,2.8801517 5.34657512,2.54950665 5.31655826,2.25976612 C5.2609715,1.70641854 5.22094902,1.33941388 5.60783297,0.814472223 C5.73615782,0.639078551 5.70106709,0.390573341 5.52945561,0.259420292 C5.35784413,0.128267244 5.11469769,0.164131347 4.98637282,0.339525008 C4.41827598,1.11330263 4.48275663,1.73709692 4.54390208,2.34043897 C4.57169546,2.61313592 4.59948885,2.89378655 4.58058937,3.21761419 C4.53278474,3.98571063 3.47107733,4.16978108 3.44884262,4.17432602 C3.24335432,4.20084633 3.09475183,4.38806222 3.11173035,4.59903471 C3.12870887,4.81000721 3.30524502,4.9698907 3.51221153,4.96173849 L3.51221153,4.96173849 Z" id="路径" fill="#009B88"></path>
                <path d="M7.00535866,4.96184756 C7.02478965,4.96140527 7.0441826,4.95988317 7.0634513,4.95728803 C7.13383277,4.94588916 8.76824697,4.67687587 8.85985462,3.26569603 C8.8761251,2.92701457 8.86304063,2.58752859 8.82075378,2.25119679 C8.76377831,1.69607192 8.7246775,1.32788848 9.11233417,0.801260779 C9.22897128,0.625443881 9.1897456,0.387156948 9.02321285,0.25986948 C8.85668011,0.132582012 8.62153306,0.161155166 8.48895541,0.324788091 C7.9169663,1.10105099 7.9828791,1.72684884 8.0432061,2.33212875 C8.07225242,2.60570157 8.10018157,2.88725362 8.08118974,3.21212135 C8.03091726,3.98268482 6.96625784,4.16734648 6.94391451,4.17190602 C6.73822913,4.19886816 6.58949175,4.38580677 6.60589856,4.59673689 C6.62230537,4.80766702 6.79808006,4.96832691 7.00535866,4.96184756 L7.00535866,4.96184756 Z" id="路径" fill="#009B88"></path>
                <path d="M10.6844221,4.96179771 C10.7037705,4.96135682 10.7230811,4.95983957 10.7422679,4.95725269 C10.8123503,4.94589014 12.4387069,4.67773381 12.5277004,3.27104936 C12.5543985,2.88017743 12.5199135,2.54952705 12.4887658,2.25978187 C12.4331448,1.70642538 12.3930978,1.33941482 12.7802196,0.814464714 C12.8632822,0.701003077 12.8807741,0.550897259 12.8261061,0.420690668 C12.7714381,0.290484077 12.6529156,0.199958193 12.515185,0.18321324 C12.3774543,0.166468286 12.24144,0.22604822 12.1583773,0.339509858 C11.5899312,1.11329993 11.6544515,1.73710426 11.7156346,2.34045601 C11.743445,2.61315735 11.7712555,2.8938125 11.7523444,3.21764534 C11.7022855,3.99029915 10.631026,4.17210007 10.6210142,4.17437256 C10.4158171,4.20108877 10.2674377,4.38786152 10.2840992,4.59846489 C10.3007606,4.80906827 10.4765753,4.96908217 10.6833097,4.96179771 L10.6844221,4.96179771 Z" id="路径" fill="#009B88"></path>
            </g>
        </g>
    </g>
</svg>