<?xml version="1.0" encoding="UTF-8"?>
<svg width="18px" height="18px" viewBox="0 0 18 18" version="1.1" xmlns="http://www.w3.org/2000/svg" xmlns:xlink="http://www.w3.org/1999/xlink">
    <title>icon_rest_unchecked</title>
    <g id="v1.5.0" stroke="none" stroke-width="1" fill="none" fill-rule="evenodd">
        <g id="icon_rest_unchecked">
            <g transform="translate(1.000000, 0.000000)">
                <polygon id="路径-3" fill="#FFFFFF" points="2 6 16 6 16 10.929189 13.7263754 11 2 9.7385322"></polygon>
                <path d="M2.0266292,10.0728109 C1.83656902,9.67436603 2.66389417,9.31676241 4.50860465,9 L6.55115024,10.2580355 L8.73130936,11.0613697 C10.2121582,10.5111289 11.1874837,10.1816093 11.6572858,10.0728109 C12.1270879,9.9640124 12.5746593,9.9640124 13,10.0728109 C12.4942335,14.0242703 10.6554041,16 7.48351158,16 C2.72567284,16 2.31171946,10.6704781 2.0266292,10.0728109 Z" id="路径-2" fill="#F5F5F5" fill-rule="nonzero"></path>
                <path d="M13.9935388,18 L1.00646123,18 C0.449801193,18 0,17.5506173 0,17 C0,16.4469136 0.452286282,16 1.00646123,16 L13.9935388,16 C14.5501988,16 15,16.4493827 15,17 C15,17.5530864 14.5477137,18 13.9935388,18 Z" id="路径" fill-opacity="0.1" fill="#000000" fill-rule="nonzero"></path>
                <path d="M10.2433645,15.4028555 C10.8294379,15.0997361 11.3713548,14.7020107 11.8501079,14.2170107 C12.5605432,13.4972945 13.0817778,12.6370156 13.3886399,11.6980832 L15.2535158,11.6980832 C15.6651296,11.6980832 16,11.3588049 16,10.9417782 L16,6.75625978 C16,6.33925567 15.665152,6 15.2535382,6 L13.6964178,6 C13.6176641,6 13.3413565,6 13.2626029,6 L1.44670228,6 C1.19998862,6 1,6.20260757 1,6.45255208 L1,9.77462373 C1,9.8203315 1.00683455,9.86438744 1.01925287,9.90597696 C1.07692214,11.5350965 1.72993386,13.0582737 2.87369269,14.216988 C3.3524682,14.7020334 3.89438506,15.0997361 4.48045845,15.4028555 C5.09523869,15.782459 6.05133384,15.9722608 7.3487439,15.9722608 C8.64615396,15.9722608 9.61102749,15.782459 10.2433645,15.4028555 Z M1.24054276,16.6090554 C1.08407932,16.4342802 1.2456104,16.292408 1.58577583,16.292408 L12.9981045,16.292408 C13.3452379,16.292408 13.4979006,16.4356953 13.3427041,16.6090554 L13.2761913,16.6837064 C13.1197279,16.8581278 12.7111493,17 12.3640158,17 L2.21986447,17 C1.87209757,17 1.46225207,16.8567126 1.30705555,16.6833526 L1.24054276,16.6090554 Z M7.31525947,15.3140636 C4.45528879,15.3140636 1.92074576,13.0173018 1.63280025,10.0608096 C2.78295743,9.01044459 4.56163139,9.04645792 5.66838813,10.1688966 C5.68540015,10.18615 5.70366546,10.2012615 5.72248779,10.2152667 C6.4529607,10.8783826 7.37420975,11.2099876 8.29587653,11.2099876 C9.28459346,11.2099876 10.2736121,10.8282228 11.0263655,10.0649523 C11.2076724,9.88111959 11.2769042,9.88078333 11.0956669,9.69692708 C10.9144295,9.51307084 10.6205369,9.51302378 10.4392299,9.69685647 C9.29550159,10.856556 7.43469177,10.8566031 6.29124196,9.69688 C6.27418352,9.67957948 6.25582538,9.66442094 6.23695665,9.65036868 C4.94731475,8.47979452 3.06218218,8.34263791 1.63280025,9.23896945 L1.63280025,6.6902856 L12.9825401,6.6902856 L12.9825401,9.56636118 C12.9825401,12.7356511 10.4402047,15.3140636 7.31525947,15.3140636 Z M15.328701,10.9718064 L13.5825872,10.9718064 C13.6403905,10.6194003 13.6732623,10.2600261 13.6803922,9.8960807 C13.6812024,9.8840719 13.6821052,9.8720384 13.6821052,9.85978252 L13.6821052,6.72625416 L15.328701,6.72625416 L15.328701,10.9718064 Z" id="形状备份" fill="#B9B9B9" fill-rule="nonzero"></path>
                <path d="M3.312114,4.99968806 C3.32742276,4.99927057 3.34270287,4.99768395 3.35788377,4.99493554 C3.41142574,4.98305421 4.67484367,4.70265486 4.74393008,3.23174648 C4.764656,2.82302879 4.73702143,2.47728217 4.71370477,2.1743083 C4.67052576,1.59568762 4.63943687,1.21192074 4.9399628,0.663003379 C5.03964371,0.479598938 5.01238573,0.21974373 4.87908038,0.0826005189 C4.74577504,-0.0545426925 4.55690236,-0.0170405664 4.45722143,0.166363863 C4.01593192,0.975482287 4.06601957,1.62776719 4.11351648,2.25866572 C4.13510599,2.54381759 4.15669549,2.83728639 4.14201464,3.17590423 C4.10488069,3.979082 3.28016154,4.17155951 3.26288994,4.17631203 C3.10326956,4.20404361 2.98783727,4.39981022 3.00102594,4.62041848 C3.01421461,4.84102675 3.15134537,5.0082126 3.312114,4.99968806 L3.312114,4.99968806 Z" id="路径" fill="#B9B9B9"></path>
                <path d="M7.31125507,4.99980211 C7.32634879,4.99933962 7.34141296,4.997748 7.35638061,4.99503433 C7.41105193,4.98311484 8.68064153,4.70181488 8.75180104,3.22618212 C8.76443972,2.87203204 8.75427589,2.51704069 8.72142807,2.16534757 C8.67717034,1.58486844 8.64679739,1.19986894 8.94792355,0.649188528 C9.0385256,0.465341531 9.00805564,0.216171301 8.87869539,0.0830702224 C8.74933513,-0.0500308557 8.56667626,-0.0201526785 8.46369184,0.150953866 C8.01937887,0.96267108 8.07057899,1.61705104 8.11744014,2.24997595 C8.1400029,2.53604368 8.16169787,2.83045508 8.14694529,3.17016051 C8.10789435,3.97591799 7.28088212,4.16901372 7.26352614,4.1737815 C7.10375267,4.20197509 6.9882156,4.39745176 7.00096018,4.61801571 C7.01370475,4.83857967 7.15024402,5.00657739 7.31125507,4.99980211 L7.31125507,4.99980211 Z" id="路径" fill="#B9B9B9"></path>
                <path d="M11.3119562,4.99974998 C11.3269857,4.99928896 11.3419859,4.99770241 11.3568899,4.99499738 C11.4113289,4.98311586 12.6746595,4.70271201 12.7437884,3.23177995 C12.7645271,2.82305569 12.7377397,2.4773035 12.7135445,2.17432476 C12.670339,1.59569478 12.639231,1.21192172 12.9399417,0.662995527 C13.0044636,0.544351748 13.018051,0.387390135 12.9755857,0.251236609 C12.9331204,0.115083083 12.8410538,0.0204226026 12.7340666,0.00291285563 C12.6270794,-0.0145968914 12.5214254,0.0477042417 12.4569035,0.166348021 C12.0153427,0.975479462 12.0654611,1.62777486 12.1129873,2.25868354 C12.13459,2.54383999 12.1561928,2.83731352 12.1415029,3.17593681 C12.1026179,3.9838801 11.2704788,4.17398442 11.2627018,4.17636071 C11.1033076,4.20429713 10.9880487,4.39960036 11.000991,4.61982264 C11.0139334,4.84004492 11.1505037,5.00736714 11.311092,4.99974998 L11.3119562,4.99974998 Z" id="路径" fill="#B9B9B9"></path>
            </g>
        </g>
    </g>
</svg>