<?xml version="1.0" encoding="UTF-8"?>
<svg width="14px" height="13px" viewBox="0 0 14 13" version="1.1" xmlns="http://www.w3.org/2000/svg" xmlns:xlink="http://www.w3.org/1999/xlink">
    <title>  工作中</title>
    <g id="v1.5.0" stroke="none" stroke-width="1" fill="none" fill-rule="evenodd">
        <g id="修改密码" transform="translate(-1093.000000, -65.000000)" fill-rule="nonzero">
            <g id="top">
                <g id="--工作中" transform="translate(1093.000000, 65.000000)">
                    <path d="M12.9290512,9.91666667 L0.487615449,9.91666667 C0.217254408,9.91666667 0,9.7051508 0,9.44193106 L0,1.05806894 C0,0.794849197 0.217254408,0.583333333 0.487615449,0.583333333 L12.9290512,0.583333333 C13.1994123,0.583333333 13.4166667,0.794849197 13.4166667,1.05806894 L13.4166667,9.44193106 C13.4166667,9.70358402 13.1994123,9.91666667 12.9290512,9.91666667 Z" id="路径" fill="#FFFFFF"></path>
                    <path d="M13.2860959,9.91666667 L0.713904054,9.91666667 C0.320362411,9.91666667 0,9.60139692 0,9.21765949 L0,0.699007172 C0,0.313677478 0.321988617,0 0.713904054,0 L13.2860959,0 C13.6796376,0 14,0.31526975 14,0.699007172 L14,9.21925177 C14,9.60458146 13.6796376,9.91666667 13.2860959,9.91666667 Z M0.713904054,0.431505566 C0.562666976,0.431505566 0.440701591,0.552518197 0.440701591,0.699007172 L0.440701591,9.21925177 C0.440701591,9.36733301 0.564293182,9.48675337 0.713904054,9.48675337 L13.2860959,9.48675337 C13.437333,9.48675337 13.5592984,9.36574074 13.5592984,9.21925177 L13.5592984,0.699007172 C13.5592984,0.550925926 13.4357068,0.431505566 13.2860959,0.431505566 L0.713904054,0.431505566 Z" id="形状" fill="#009B88"></path>
                    <path d="M13.4166667,8.16666667 L0.583333333,8.16666667 L0.583333333,0.897651251 C0.583333333,0.725603549 0.717804898,0.583333333 0.883916831,0.583333333 L13.1224112,0.583333333 C13.2853591,0.583333333 13.4166667,0.720640634 13.4166667,0.891034031 L13.4166667,8.16666667 Z" id="路径" fill-opacity="0.4" fill="#00C6AE"></path>
                    <path d="M11.5846173,12.8333333 L2.99871604,12.8333333 C2.6307019,12.8333333 2.33333333,12.5711934 2.33333333,12.25 C2.33333333,11.9273663 2.63234482,11.6666667 2.99871604,11.6666667 L11.5846173,11.6666667 C11.9526314,11.6666667 12.25,11.9288066 12.25,12.25 C12.25,12.5726337 11.9509885,12.8333333 11.5846173,12.8333333 Z" id="路径" fill="#00C6AE"></path>
                    <path d="M8.98031177,12.25 L5.60724487,12.25 C5.37977708,12.25 5.20995524,12.0024805 5.25825319,11.7401837 L5.65710083,9.55868693 C5.6804708,9.42938569 5.78018271,9.33333333 5.89080061,9.33333333 L8.71233602,9.33333333 C8.82451191,9.33333333 8.92266582,9.42569137 8.9460358,9.55683977 L9.32307145,11.7383365 C9.3776014,11.9987862 9.20777956,12.25 8.98031177,12.25 L8.98031177,12.25 Z" id="路径" fill="#FFFFFF"></path>
                    <path d="M9.04486176,12.25 L5.54816219,12.25 C5.36888568,12.25 5.20252999,12.1639344 5.09108784,12.0128806 C4.97964568,11.8600703 4.93603788,11.6651054 4.97480037,11.4754098 L5.38826692,9.40105386 C5.43348983,9.16744731 5.62730228,8.99882904 5.84534128,8.99882904 L8.76867903,8.99882904 C8.98671803,8.99882904 9.17730027,9.16744731 9.22575338,9.39929742 L9.22575338,9.40105386 L9.61660848,11.4736534 C9.65375587,11.6633489 9.61176317,11.8583138 9.50032101,12.0093677 C9.39049396,12.162178 9.22413828,12.25 9.04486176,12.25 L9.04486176,12.25 Z M5.84372617,9.47306792 C5.83080534,9.47306792 5.81788452,9.485363 5.8130392,9.49941452 L5.39957265,11.5755269 C5.38665182,11.6422717 5.41249348,11.6896956 5.43025962,11.7142857 C5.44802576,11.7388759 5.48517315,11.7757611 5.54654709,11.7757611 L9.04324666,11.7757611 C9.1062357,11.7757611 9.14338309,11.7371194 9.16114923,11.7142857 C9.17891537,11.6896956 9.20475703,11.6422717 9.1918362,11.5755269 L9.1918362,11.5737705 L8.8009811,9.50117096 C8.79613579,9.48711944 8.78644517,9.4765808 8.77190923,9.4765808 L5.84372617,9.4765808 L5.84372617,9.47306792 Z M0.583333333,7 L14,7 L14,7.47599532 L0.583333333,7.47599532 L0.583333333,7 Z" id="形状" fill="#009B88"></path>
                    <path d="M7.01184476,8.75 C6.87025359,8.75 6.70103489,8.71095948 6.50994438,8.58895785 C6.43051519,8.54015719 6.39482962,8.41002212 6.43051519,8.29778062 C6.46504962,8.18553911 6.55714143,8.13673846 6.63657062,8.18553911 C7.00148443,8.41327549 7.23171396,8.26850022 7.35488675,8.19204587 L7.36409594,8.18553911 C7.44352512,8.13673846 7.53561693,8.1871658 7.57015136,8.29778062 C7.60468579,8.41002212 7.56900022,8.54015719 7.49072218,8.58895785 L7.481513,8.5954646 C7.39402577,8.65077201 7.2351674,8.75 7.01184476,8.75 Z" id="路径" fill="#009B88"></path>
                </g>
            </g>
        </g>
    </g>
</svg>